STARTFONT 2.1
COMMENT Recovered from 13fgb.ast (MIT CADR textual AST font source)
FONT MIT-CADR-13FGB
SIZE 13 72 72
FONTBOUNDINGBOX 10 13 0 -2
STARTPROPERTIES 2
FONT_ASCENT 11
FONT_DESCENT 2
ENDPROPERTIES
CHARS 123
STARTCHAR C0001
ENCODING -1 1
SWIDTH 769 0
DWIDTH 10 0
BBX 6 13 1 -2
BITMAP
00
30
30
30
30
30
30
FC
78
30
00
00
00
ENDCHAR
STARTCHAR C0002
ENCODING -1 2
SWIDTH 769 0
DWIDTH 10 0
BBX 8 13 0 -2
BITMAP
00
00
00
00
33
7E
CC
CC
CC
7E
33
00
00
ENDCHAR
STARTCHAR C0003
ENCODING -1 3
SWIDTH 769 0
DWIDTH 10 0
BBX 7 13 1 -2
BITMAP
00
3C
66
66
C6
FC
C6
C6
C6
FC
C0
C0
C0
ENDCHAR
STARTCHAR C0004
ENCODING -1 4
SWIDTH 769 0
DWIDTH 10 0
BBX 8 13 0 -2
BITMAP
00
00
00
00
00
18
3C
66
C3
00
00
00
00
ENDCHAR
STARTCHAR C0005
ENCODING -1 5
SWIDTH 769 0
DWIDTH 10 0
BBX 8 13 0 -2
BITMAP
00
00
00
00
FF
03
03
00
00
00
00
00
00
ENDCHAR
STARTCHAR C0006
ENCODING -1 6
SWIDTH 769 0
DWIDTH 10 0
BBX 6 13 1 -2
BITMAP
00
00
00
00
3C
60
C0
FC
C0
60
3C
00
00
ENDCHAR
STARTCHAR C0007
ENCODING -1 7
SWIDTH 769 0
DWIDTH 10 0
BBX 8 13 0 -2
BITMAP
00
00
00
00
FF
66
66
66
66
66
66
00
00
ENDCHAR
STARTCHAR C0008
ENCODING -1 8
SWIDTH 769 0
DWIDTH 10 0
BBX 8 13 0 -2
BITMAP
C0
60
60
30
18
18
3C
36
66
63
C3
00
00
ENDCHAR
STARTCHAR C000B
ENCODING -1 11
SWIDTH 769 0
DWIDTH 10 0
BBX 6 13 1 -2
BITMAP
00
30
78
FC
30
30
30
30
30
30
00
00
00
ENDCHAR
STARTCHAR C000D
ENCODING -1 13
SWIDTH 769 0
DWIDTH 10 0
BBX 7 13 0 -2
BITMAP
06
0C
18
30
60
C0
60
30
18
0C
06
00
00
ENDCHAR
STARTCHAR C000E
ENCODING -1 14
SWIDTH 769 0
DWIDTH 10 0
BBX 8 13 0 -2
BITMAP
00
00
00
00
7E
DB
DB
DB
7E
00
00
00
00
ENDCHAR
STARTCHAR C000F
ENCODING -1 15
SWIDTH 769 0
DWIDTH 10 0
BBX 8 13 0 -2
BITMAP
7E
E7
03
03
03
7F
E3
C3
C3
E7
7E
00
00
ENDCHAR
STARTCHAR C0010
ENCODING -1 16
SWIDTH 769 0
DWIDTH 10 0
BBX 8 13 0 -2
BITMAP
00
00
00
7F
E0
C0
C0
E0
7F
00
00
00
00
ENDCHAR
STARTCHAR C0011
ENCODING -1 17
SWIDTH 769 0
DWIDTH 10 0
BBX 8 13 0 -2
BITMAP
00
00
00
FE
07
03
03
07
FE
00
00
00
00
ENDCHAR
STARTCHAR C0012
ENCODING -1 18
SWIDTH 769 0
DWIDTH 10 0
BBX 8 13 0 -2
BITMAP
7E
E7
C3
C3
C3
C3
C3
C3
C3
C3
C3
00
00
ENDCHAR
STARTCHAR C0013
ENCODING -1 19
SWIDTH 769 0
DWIDTH 10 0
BBX 8 13 0 -2
BITMAP
C3
C3
C3
C3
C3
C3
C3
C3
C3
E7
7E
00
00
ENDCHAR
STARTCHAR C0014
ENCODING -1 20
SWIDTH 769 0
DWIDTH 10 0
BBX 8 13 0 -2
BITMAP
C3
C3
C3
7E
66
66
3C
3C
3C
18
18
00
00
ENDCHAR
STARTCHAR C0015
ENCODING -1 21
SWIDTH 769 0
DWIDTH 10 0
BBX 8 13 0 -2
BITMAP
FF
03
03
03
03
7F
03
03
03
03
FF
00
00
ENDCHAR
STARTCHAR C0016
ENCODING -1 22
SWIDTH 769 0
DWIDTH 10 0
BBX 8 13 0 -2
BITMAP
00
00
00
3C
66
FF
DB
FF
66
3C
00
00
00
ENDCHAR
STARTCHAR C0017
ENCODING -1 23
SWIDTH 769 0
DWIDTH 10 0
BBX 9 13 0 -2
BITMAP
0000
0000
0000
3600
6300
FF80
6300
3600
0000
0000
0000
0000
0000
ENDCHAR
STARTCHAR C0018
ENCODING -1 24
SWIDTH 769 0
DWIDTH 10 0
BBX 8 13 0 -2
BITMAP
00
00
00
00
30
60
FF
60
30
00
00
00
00
ENDCHAR
STARTCHAR C0019
ENCODING -1 25
SWIDTH 769 0
DWIDTH 10 0
BBX 8 13 0 -2
BITMAP
00
00
00
00
0C
06
FF
06
0C
00
00
00
00
ENDCHAR
STARTCHAR C001A
ENCODING -1 26
SWIDTH 769 0
DWIDTH 10 0
BBX 8 13 0 -2
BITMAP
00
06
06
0C
FF
18
30
FF
60
60
C0
00
00
ENDCHAR
STARTCHAR C001B
ENCODING -1 27
SWIDTH 692 0
DWIDTH 9 0
BBX 7 13 0 -2
BITMAP
00
00
00
00
9C
72
00
00
00
00
00
00
00
ENDCHAR
STARTCHAR C001C
ENCODING -1 28
SWIDTH 769 0
DWIDTH 10 0
BBX 7 13 0 -2
BITMAP
06
0C
18
30
60
C0
60
30
18
0C
06
00
FE
ENDCHAR
STARTCHAR C001D
ENCODING -1 29
SWIDTH 769 0
DWIDTH 10 0
BBX 7 13 1 -2
BITMAP
C0
60
30
18
0C
06
0C
18
30
60
C0
00
FE
ENDCHAR
STARTCHAR C001E
ENCODING -1 30
SWIDTH 769 0
DWIDTH 10 0
BBX 8 13 0 -2
BITMAP
00
00
FF
00
00
FF
00
00
FF
00
00
00
00
ENDCHAR
STARTCHAR C001F
ENCODING -1 31
SWIDTH 769 0
DWIDTH 10 0
BBX 8 13 0 -2
BITMAP
00
00
00
00
00
C3
66
3C
18
00
00
00
00
ENDCHAR
STARTCHAR C0020
ENCODING -1 32
SWIDTH 769 0
DWIDTH 10 0
BBX 1 13 0 -2
BITMAP
00
00
00
00
00
00
00
00
00
00
00
00
00
ENDCHAR
STARTCHAR C0021
ENCODING -1 33
SWIDTH 769 0
DWIDTH 10 0
BBX 2 13 3 -2
BITMAP
C0
C0
C0
C0
C0
C0
C0
00
00
C0
C0
00
00
ENDCHAR
STARTCHAR C0022
ENCODING -1 34
SWIDTH 769 0
DWIDTH 10 0
BBX 7 13 1 -2
BITMAP
EE
EE
6C
6C
00
00
00
00
00
00
00
00
00
ENDCHAR
STARTCHAR C0023
ENCODING -1 35
SWIDTH 769 0
DWIDTH 10 0
BBX 8 13 0 -2
BITMAP
00
00
66
66
FF
66
66
FF
66
66
00
00
00
ENDCHAR
STARTCHAR C0024
ENCODING -1 36
SWIDTH 769 0
DWIDTH 10 0
BBX 8 13 0 -2
BITMAP
18
7E
FF
D8
F8
7E
1F
1B
FF
7E
18
00
00
ENDCHAR
STARTCHAR C0025
ENCODING -1 37
SWIDTH 769 0
DWIDTH 10 0
BBX 8 13 0 -2
BITMAP
70
D8
DB
76
0C
18
30
6E
DB
1B
0E
00
00
ENDCHAR
STARTCHAR C0026
ENCODING -1 38
SWIDTH 769 0
DWIDTH 10 0
BBX 8 13 0 -2
BITMAP
38
6C
CC
CC
D8
70
70
D8
CF
C6
7B
00
00
ENDCHAR
STARTCHAR C0027
ENCODING -1 39
SWIDTH 769 0
DWIDTH 10 0
BBX 3 13 2 -2
BITMAP
E0
E0
60
60
00
00
00
00
00
00
00
00
00
ENDCHAR
STARTCHAR C0028
ENCODING -1 40
SWIDTH 769 0
DWIDTH 10 0
BBX 4 13 2 -2
BITMAP
30
60
C0
C0
C0
C0
C0
C0
C0
60
30
00
00
ENDCHAR
STARTCHAR C0029
ENCODING -1 41
SWIDTH 769 0
DWIDTH 10 0
BBX 4 13 2 -2
BITMAP
C0
60
30
30
30
30
30
30
30
60
C0
00
00
ENDCHAR
STARTCHAR C002A
ENCODING -1 42
SWIDTH 769 0
DWIDTH 10 0
BBX 8 13 0 -2
BITMAP
00
00
DB
7E
3C
FF
3C
7E
DB
00
00
00
00
ENDCHAR
STARTCHAR C002B
ENCODING -1 43
SWIDTH 769 0
DWIDTH 10 0
BBX 8 13 0 -2
BITMAP
00
00
18
18
18
FF
18
18
18
00
00
00
00
ENDCHAR
STARTCHAR C002C
ENCODING -1 44
SWIDTH 769 0
DWIDTH 10 0
BBX 4 13 2 -2
BITMAP
00
00
00
00
00
00
00
70
70
60
C0
00
00
ENDCHAR
STARTCHAR C002D
ENCODING -1 45
SWIDTH 769 0
DWIDTH 10 0
BBX 8 13 0 -2
BITMAP
00
00
00
00
00
FF
00
00
00
00
00
00
00
ENDCHAR
STARTCHAR C002E
ENCODING -1 46
SWIDTH 769 0
DWIDTH 10 0
BBX 3 13 2 -2
BITMAP
00
00
00
00
00
00
00
00
E0
E0
00
00
00
ENDCHAR
STARTCHAR C002F
ENCODING -1 47
SWIDTH 769 0
DWIDTH 10 0
BBX 7 13 1 -2
BITMAP
06
06
0C
0C
18
18
30
30
60
60
C0
C0
00
ENDCHAR
STARTCHAR C0030
ENCODING -1 48
SWIDTH 769 0
DWIDTH 10 0
BBX 8 13 0 -2
BITMAP
3C
66
C3
C7
CF
DB
F3
E3
C3
66
3C
00
00
ENDCHAR
STARTCHAR C0031
ENCODING -1 49
SWIDTH 769 0
DWIDTH 10 0
BBX 6 13 1 -2
BITMAP
30
70
F0
30
30
30
30
30
30
30
FC
00
00
ENDCHAR
STARTCHAR C0032
ENCODING -1 50
SWIDTH 769 0
DWIDTH 10 0
BBX 8 13 0 -2
BITMAP
7E
E7
83
06
0C
18
30
60
C0
C0
FF
00
00
ENDCHAR
STARTCHAR C0033
ENCODING -1 51
SWIDTH 769 0
DWIDTH 10 0
BBX 8 13 0 -2
BITMAP
7E
E7
03
03
07
7E
07
03
03
E7
7E
00
00
ENDCHAR
STARTCHAR C0034
ENCODING -1 52
SWIDTH 769 0
DWIDTH 10 0
BBX 8 13 0 -2
BITMAP
0C
1C
3C
6C
CC
FF
0C
0C
0C
0C
0C
00
00
ENDCHAR
STARTCHAR C0035
ENCODING -1 53
SWIDTH 769 0
DWIDTH 10 0
BBX 8 13 0 -2
BITMAP
FF
C0
C0
C0
C0
FE
07
03
03
E7
7E
00
00
ENDCHAR
STARTCHAR C0036
ENCODING -1 54
SWIDTH 769 0
DWIDTH 10 0
BBX 8 13 0 -2
BITMAP
7E
E7
C0
C0
C0
FE
C7
C3
C3
E7
7E
00
00
ENDCHAR
STARTCHAR C0037
ENCODING -1 55
SWIDTH 769 0
DWIDTH 10 0
BBX 8 13 0 -2
BITMAP
FF
03
03
03
06
0C
18
30
30
30
30
00
00
ENDCHAR
STARTCHAR C0038
ENCODING -1 56
SWIDTH 769 0
DWIDTH 10 0
BBX 8 13 0 -2
BITMAP
7E
E7
C3
C3
E7
7E
E7
C3
C3
E7
7E
00
00
ENDCHAR
STARTCHAR C0039
ENCODING -1 57
SWIDTH 769 0
DWIDTH 10 0
BBX 8 13 0 -2
BITMAP
7E
E7
C3
C3
E7
7F
03
03
03
E7
7E
00
00
ENDCHAR
STARTCHAR C003A
ENCODING -1 58
SWIDTH 769 0
DWIDTH 10 0
BBX 3 13 2 -2
BITMAP
00
00
00
00
E0
E0
00
00
E0
E0
00
00
00
ENDCHAR
STARTCHAR C003B
ENCODING -1 59
SWIDTH 769 0
DWIDTH 10 0
BBX 4 13 2 -2
BITMAP
00
00
00
70
70
00
00
70
70
60
C0
00
00
ENDCHAR
STARTCHAR C003C
ENCODING -1 60
SWIDTH 769 0
DWIDTH 10 0
BBX 7 13 0 -2
BITMAP
06
0C
18
30
60
C0
60
30
18
0C
06
00
00
ENDCHAR
STARTCHAR C003D
ENCODING -1 61
SWIDTH 769 0
DWIDTH 10 0
BBX 8 13 0 -2
BITMAP
00
00
00
00
FF
00
00
FF
00
00
00
00
00
ENDCHAR
STARTCHAR C003E
ENCODING -1 62
SWIDTH 769 0
DWIDTH 10 0
BBX 7 13 1 -2
BITMAP
C0
60
30
18
0C
06
0C
18
30
60
C0
00
00
ENDCHAR
STARTCHAR C003F
ENCODING -1 63
SWIDTH 769 0
DWIDTH 10 0
BBX 8 13 0 -2
BITMAP
7E
C3
C3
03
06
0C
18
18
00
00
18
00
00
ENDCHAR
STARTCHAR C0040
ENCODING -1 64
SWIDTH 769 0
DWIDTH 10 0
BBX 7 13 0 -2
BITMAP
00
00
00
7E
82
BA
AA
BA
8E
80
7E
00
00
ENDCHAR
STARTCHAR C0041
ENCODING -1 65
SWIDTH 769 0
DWIDTH 10 0
BBX 8 13 0 -2
BITMAP
18
3C
66
C3
C3
C3
FF
C3
C3
C3
C3
00
00
ENDCHAR
STARTCHAR C0042
ENCODING -1 66
SWIDTH 769 0
DWIDTH 10 0
BBX 8 13 0 -2
BITMAP
FE
C7
C3
C3
C7
FE
C7
C3
C3
C7
FE
00
00
ENDCHAR
STARTCHAR C0043
ENCODING -1 67
SWIDTH 769 0
DWIDTH 10 0
BBX 8 13 0 -2
BITMAP
7E
E7
C0
C0
C0
C0
C0
C0
C0
E7
7E
00
00
ENDCHAR
STARTCHAR C0044
ENCODING -1 68
SWIDTH 769 0
DWIDTH 10 0
BBX 8 13 0 -2
BITMAP
FC
CE
C7
C3
C3
C3
C3
C3
C7
CE
FC
00
00
ENDCHAR
STARTCHAR C0045
ENCODING -1 69
SWIDTH 769 0
DWIDTH 10 0
BBX 8 13 0 -2
BITMAP
FF
C0
C0
C0
C0
FC
C0
C0
C0
C0
FF
00
00
ENDCHAR
STARTCHAR C0046
ENCODING -1 70
SWIDTH 769 0
DWIDTH 10 0
BBX 8 13 0 -2
BITMAP
FF
C0
C0
C0
FC
C0
C0
C0
C0
C0
C0
00
00
ENDCHAR
STARTCHAR C0047
ENCODING -1 71
SWIDTH 769 0
DWIDTH 10 0
BBX 8 13 0 -2
BITMAP
7E
E7
C0
C0
C0
C0
CF
C3
C3
E7
7E
00
00
ENDCHAR
STARTCHAR C0048
ENCODING -1 72
SWIDTH 769 0
DWIDTH 10 0
BBX 8 13 0 -2
BITMAP
C3
C3
C3
C3
C3
FF
C3
C3
C3
C3
C3
00
00
ENDCHAR
STARTCHAR C0049
ENCODING -1 73
SWIDTH 769 0
DWIDTH 10 0
BBX 6 13 1 -2
BITMAP
FC
30
30
30
30
30
30
30
30
30
FC
00
00
ENDCHAR
STARTCHAR C004A
ENCODING -1 74
SWIDTH 769 0
DWIDTH 10 0
BBX 7 13 0 -2
BITMAP
06
06
06
06
06
06
06
06
C6
EE
7C
00
00
ENDCHAR
STARTCHAR C004B
ENCODING -1 75
SWIDTH 769 0
DWIDTH 10 0
BBX 8 13 0 -2
BITMAP
C3
C6
CC
D8
F0
E0
F0
D8
CC
C6
C3
00
00
ENDCHAR
STARTCHAR C004C
ENCODING -1 76
SWIDTH 769 0
DWIDTH 10 0
BBX 8 13 0 -2
BITMAP
C0
C0
C0
C0
C0
C0
C0
C0
C0
C0
FF
00
00
ENDCHAR
STARTCHAR C004D
ENCODING -1 77
SWIDTH 769 0
DWIDTH 10 0
BBX 8 13 0 -2
BITMAP
C3
E7
FF
FF
DB
DB
C3
C3
C3
C3
C3
00
00
ENDCHAR
STARTCHAR C004E
ENCODING -1 78
SWIDTH 769 0
DWIDTH 10 0
BBX 8 13 0 -2
BITMAP
E3
E3
F3
F3
FB
DB
DF
CF
CF
C7
C7
00
00
ENDCHAR
STARTCHAR C004F
ENCODING -1 79
SWIDTH 769 0
DWIDTH 10 0
BBX 8 13 0 -2
BITMAP
7E
E7
C3
C3
C3
C3
C3
C3
C3
E7
7E
00
00
ENDCHAR
STARTCHAR C0050
ENCODING -1 80
SWIDTH 769 0
DWIDTH 10 0
BBX 8 13 0 -2
BITMAP
FE
C7
C3
C3
C7
FE
C0
C0
C0
C0
C0
00
00
ENDCHAR
STARTCHAR C0051
ENCODING -1 81
SWIDTH 769 0
DWIDTH 10 0
BBX 8 13 0 -2
BITMAP
3C
66
C3
C3
C3
C3
C3
DB
DF
6E
3B
00
00
ENDCHAR
STARTCHAR C0052
ENCODING -1 82
SWIDTH 769 0
DWIDTH 10 0
BBX 8 13 0 -2
BITMAP
FE
C7
C3
C3
C7
FE
F0
D8
CC
C6
C3
00
00
ENDCHAR
STARTCHAR C0053
ENCODING -1 83
SWIDTH 769 0
DWIDTH 10 0
BBX 8 13 0 -2
BITMAP
7E
E7
C0
C0
E0
7E
07
03
03
E7
7E
00
00
ENDCHAR
STARTCHAR C0054
ENCODING -1 84
SWIDTH 769 0
DWIDTH 10 0
BBX 8 13 0 -2
BITMAP
FF
18
18
18
18
18
18
18
18
18
18
00
00
ENDCHAR
STARTCHAR C0055
ENCODING -1 85
SWIDTH 769 0
DWIDTH 10 0
BBX 8 13 0 -2
BITMAP
C3
C3
C3
C3
C3
C3
C3
C3
C3
E7
7E
00
00
ENDCHAR
STARTCHAR C0056
ENCODING -1 86
SWIDTH 769 0
DWIDTH 10 0
BBX 8 13 0 -2
BITMAP
C3
C3
C3
C3
C3
C3
66
66
3C
3C
18
00
00
ENDCHAR
STARTCHAR C0057
ENCODING -1 87
SWIDTH 769 0
DWIDTH 10 0
BBX 8 13 0 -2
BITMAP
C3
C3
C3
C3
C3
DB
DB
FF
FF
E7
C3
00
00
ENDCHAR
STARTCHAR C0058
ENCODING -1 88
SWIDTH 769 0
DWIDTH 10 0
BBX 8 13 0 -2
BITMAP
C3
66
66
3C
3C
18
3C
3C
66
66
C3
00
00
ENDCHAR
STARTCHAR C0059
ENCODING -1 89
SWIDTH 769 0
DWIDTH 10 0
BBX 8 13 0 -2
BITMAP
C3
66
66
3C
3C
18
18
18
18
18
18
00
00
ENDCHAR
STARTCHAR C005A
ENCODING -1 90
SWIDTH 769 0
DWIDTH 10 0
BBX 8 13 0 -2
BITMAP
FF
03
03
06
0C
7E
30
60
C0
C0
FF
00
00
ENDCHAR
STARTCHAR C005B
ENCODING -1 91
SWIDTH 769 0
DWIDTH 10 0
BBX 4 13 2 -2
BITMAP
F0
C0
C0
C0
C0
C0
C0
C0
C0
C0
F0
00
00
ENDCHAR
STARTCHAR C005C
ENCODING -1 92
SWIDTH 769 0
DWIDTH 10 0
BBX 7 13 1 -2
BITMAP
C0
C0
60
60
30
30
18
18
0C
0C
06
06
00
ENDCHAR
STARTCHAR C005D
ENCODING -1 93
SWIDTH 769 0
DWIDTH 10 0
BBX 4 13 2 -2
BITMAP
F0
30
30
30
30
30
30
30
30
30
F0
00
00
ENDCHAR
STARTCHAR C005E
ENCODING -1 94
SWIDTH 769 0
DWIDTH 10 0
BBX 8 13 0 -2
BITMAP
18
3C
66
C3
00
00
00
00
00
00
00
00
00
ENDCHAR
STARTCHAR C005F
ENCODING -1 95
SWIDTH 769 0
DWIDTH 10 0
BBX 10 13 0 -2
BITMAP
0000
0000
0000
0000
0000
0000
0000
0000
0000
0000
0000
0000
FFC0
ENDCHAR
STARTCHAR C0060
ENCODING -1 96
SWIDTH 769 0
DWIDTH 10 0
BBX 3 13 3 -2
BITMAP
E0
E0
C0
C0
00
00
00
00
00
00
00
00
00
ENDCHAR
STARTCHAR C0061
ENCODING -1 97
SWIDTH 769 0
DWIDTH 10 0
BBX 9 13 0 -2
BITMAP
0000
0000
0000
0000
7E00
C300
0300
7F00
C300
C300
7D80
0000
0000
ENDCHAR
STARTCHAR C0062
ENCODING -1 98
SWIDTH 769 0
DWIDTH 10 0
BBX 8 13 0 -2
BITMAP
C0
C0
C0
C0
C0
FE
C3
C3
C3
C3
FE
00
00
ENDCHAR
STARTCHAR C0063
ENCODING -1 99
SWIDTH 769 0
DWIDTH 10 0
BBX 8 13 0 -2
BITMAP
00
00
00
00
7E
C3
C0
C0
C0
C3
7E
00
00
ENDCHAR
STARTCHAR C0064
ENCODING -1 100
SWIDTH 769 0
DWIDTH 10 0
BBX 8 13 0 -2
BITMAP
03
03
03
03
03
7F
C3
C3
C3
C3
7F
00
00
ENDCHAR
STARTCHAR C0065
ENCODING -1 101
SWIDTH 769 0
DWIDTH 10 0
BBX 8 13 0 -2
BITMAP
00
00
00
00
7E
C3
C3
FE
C0
C0
7F
00
00
ENDCHAR
STARTCHAR C0066
ENCODING -1 102
SWIDTH 769 0
DWIDTH 10 0
BBX 8 13 0 -2
BITMAP
1E
33
30
30
30
FC
30
30
30
30
30
00
00
ENDCHAR
STARTCHAR C0067
ENCODING -1 103
SWIDTH 769 0
DWIDTH 10 0
BBX 8 13 0 -2
BITMAP
00
00
00
00
7E
C3
C3
C3
7F
03
03
C3
7E
ENDCHAR
STARTCHAR C0068
ENCODING -1 104
SWIDTH 769 0
DWIDTH 10 0
BBX 8 13 0 -2
BITMAP
C0
C0
C0
C0
FE
C3
C3
C3
C3
C3
C3
00
00
ENDCHAR
STARTCHAR C0069
ENCODING -1 105
SWIDTH 769 0
DWIDTH 10 0
BBX 2 13 3 -2
BITMAP
00
C0
00
00
C0
C0
C0
C0
C0
C0
C0
00
00
ENDCHAR
STARTCHAR C006A
ENCODING -1 106
SWIDTH 769 0
DWIDTH 10 0
BBX 5 13 1 -2
BITMAP
00
18
00
00
18
18
18
18
18
18
18
D8
70
ENDCHAR
STARTCHAR C006B
ENCODING -1 107
SWIDTH 769 0
DWIDTH 10 0
BBX 7 13 0 -2
BITMAP
C0
C0
C0
C0
C6
CC
D8
F0
F8
CC
C6
00
00
ENDCHAR
STARTCHAR C006C
ENCODING -1 108
SWIDTH 769 0
DWIDTH 10 0
BBX 6 13 1 -2
BITMAP
F0
30
30
30
30
30
30
30
30
30
FC
00
00
ENDCHAR
STARTCHAR C006D
ENCODING -1 109
SWIDTH 769 0
DWIDTH 10 0
BBX 8 13 0 -2
BITMAP
00
00
00
00
FE
DB
DB
DB
DB
DB
DB
00
00
ENDCHAR
STARTCHAR C006E
ENCODING -1 110
SWIDTH 769 0
DWIDTH 10 0
BBX 7 13 0 -2
BITMAP
00
00
00
00
FC
C6
C6
C6
C6
C6
C6
00
00
ENDCHAR
STARTCHAR C006F
ENCODING -1 111
SWIDTH 769 0
DWIDTH 10 0
BBX 7 13 0 -2
BITMAP
00
00
00
00
7C
C6
C6
C6
C6
C6
7C
00
00
ENDCHAR
STARTCHAR C0070
ENCODING -1 112
SWIDTH 769 0
DWIDTH 10 0
BBX 8 13 0 -2
BITMAP
00
00
00
00
FE
C3
C3
C3
C3
FE
C0
C0
C0
ENDCHAR
STARTCHAR C0071
ENCODING -1 113
SWIDTH 769 0
DWIDTH 10 0
BBX 8 13 0 -2
BITMAP
00
00
00
00
7F
C3
C3
C3
C3
7F
03
03
03
ENDCHAR
STARTCHAR C0072
ENCODING -1 114
SWIDTH 769 0
DWIDTH 10 0
BBX 8 13 0 -2
BITMAP
00
00
00
00
FE
E3
C0
C0
C0
C0
C0
00
00
ENDCHAR
STARTCHAR C0073
ENCODING -1 115
SWIDTH 769 0
DWIDTH 10 0
BBX 8 13 0 -2
BITMAP
00
00
00
00
7F
C0
C0
7E
03
03
FE
00
00
ENDCHAR
STARTCHAR C0074
ENCODING -1 116
SWIDTH 769 0
DWIDTH 10 0
BBX 7 13 0 -2
BITMAP
00
30
30
30
FC
30
30
30
30
36
1C
00
00
ENDCHAR
STARTCHAR C0075
ENCODING -1 117
SWIDTH 769 0
DWIDTH 10 0
BBX 7 13 0 -2
BITMAP
00
00
00
00
C6
C6
C6
C6
C6
C6
7E
00
00
ENDCHAR
STARTCHAR C0076
ENCODING -1 118
SWIDTH 769 0
DWIDTH 10 0
BBX 8 13 0 -2
BITMAP
00
00
00
00
C3
C3
66
66
3C
3C
18
00
00
ENDCHAR
STARTCHAR C0077
ENCODING -1 119
SWIDTH 769 0
DWIDTH 10 0
BBX 8 13 0 -2
BITMAP
00
00
00
00
C3
C3
C3
DB
FF
E7
C3
00
00
ENDCHAR
STARTCHAR C0078
ENCODING -1 120
SWIDTH 769 0
DWIDTH 10 0
BBX 8 13 0 -2
BITMAP
00
00
00
00
C3
66
3C
18
3C
66
C3
00
00
ENDCHAR
STARTCHAR C0079
ENCODING -1 121
SWIDTH 769 0
DWIDTH 10 0
BBX 8 13 0 -2
BITMAP
00
00
00
00
C3
66
66
3C
18
30
60
60
C0
ENDCHAR
STARTCHAR C007A
ENCODING -1 122
SWIDTH 769 0
DWIDTH 10 0
BBX 8 13 0 -2
BITMAP
00
00
00
00
FF
06
0C
18
30
60
FF
00
00
ENDCHAR
STARTCHAR C007B
ENCODING -1 123
SWIDTH 769 0
DWIDTH 10 0
BBX 8 13 0 -2
BITMAP
0F
18
18
18
18
38
F0
38
18
18
18
18
0F
ENDCHAR
STARTCHAR C007C
ENCODING -1 124
SWIDTH 769 0
DWIDTH 10 0
BBX 2 13 3 -2
BITMAP
C0
C0
C0
C0
C0
C0
C0
C0
C0
C0
C0
C0
C0
ENDCHAR
STARTCHAR C007D
ENCODING -1 125
SWIDTH 769 0
DWIDTH 10 0
BBX 8 13 0 -2
BITMAP
F0
18
18
18
18
1C
0F
1C
18
18
18
18
F0
ENDCHAR
STARTCHAR C007E
ENCODING -1 126
SWIDTH 769 0
DWIDTH 10 0
BBX 8 13 0 -2
BITMAP
00
00
00
00
7B
DE
00
00
00
00
00
00
00
ENDCHAR
ENDFONT
